{"title":"Spanish.Affair.[Ocho.Apellidos.Vascos].2014.BRRip.x264.HORiZON-A","uid":10495691,"size":2152498286,"categoryP":"video","categoryS":"movies","magnet":"?xt=urn:btih:3a89ed5cd259074405e4cbd60ef46525f2b70609&amp;dn=Spanish.Affair.%5BOcho.Apellidos.Vascos%5D.2014.BRRip.x264.HORiZON-A&amp;tr=udp%3A%2F%2Ftracker.openbittorrent.com%3A80&amp;tr=udp%3A%2F%2Fopen.demonii.com%3A1337&amp;tr=udp%3A%2F%2Ftracker.coppersurfer.tk%3A6969&amp;tr=udp%3A%2F%2Fexodus.desync.com%3A6969","seeders":11,"leechers":1,"uploader":"lletaif","files":3,"time":1404618440,"description":"Title:\nSpanish Affair Aka Ocho Apellidos Vascos\n\n\n\nCountry:\nSpain/2014\n\n\nLanguage:\nSpanish\n\n\nSubtitles:\nEnglish\nSpanish\n\n\nIMDB: &lt;a href=&quot;\nhttp://www.imdb.com/title/tt2955316&quot; rel=&quot;nofollow&quot; target=&quot;_NEW&quot;&gt;\nhttp://www.imdb.com/title/tt2955316&lt;/a&gt;\n\n\nSynopsis:\nRafael, a Seville citizen who has never left the Spanish region of Andalucia, decides to leave his homeland to follow Amaia, a Basque girl unlike other women he has known.\n\n\n\nMedia Info:\n\nGeneral\nUnique ID                                : 252960304368235354462848259570749460110 (0xBE4E61EB05C53E29B92098881290CE8E)\nComplete name                            : Spanish.Affair.[Ocho.Apellidos.Vascos].2014.BRRip.x264.HORiZON-ArtSubs\nFormat                                   : Matroska\nFormat version                           : Version 2\nFile size                                : 1.99 GiB\nDuration                                 : 1h 39mn\nOverall bit rate mode                    : Variable\nOverall bit rate                         : 2 865 Kbps\nEncoded date                             : UTC 2014-07-05 02:34:31\nWriting application                      : DVDFab 9.1.4.0\nWriting library                          : libebml v0.7.8 + libmatroska v0.8.1\n\nVideo\nID                                       : 1\nFormat                                   : AVC\nFormat/Info                              : Advanced Video Codec\nFormat profile                           : &lt;a class=&quot;__cf_email__&quot; href=&quot;/cdn-cgi/l/email-protection&quot; data-cfemail=&quot;b5fddcd2ddf5f9819b84&quot;&gt;[email&amp;#160;protected]&lt;/a&gt;&lt;script cf-hash='f9e31' type=&quot;text/javascript&quot;&gt;\n/* &lt;![CDATA[ */!function(){try{var t=&quot;currentScript&quot;in document?document.currentScript:function(){for(var t=document.getElementsByTagName(&quot;script&quot;),e=t.length;e--;)if(t[e].getAttribute(&quot;cf-hash&quot;))return t[e]}();if(t&amp;&amp;t.previousSibling){var e,r,n,i,c=t.previousSibling,a=c.getAttribute(&quot;data-cfemail&quot;);if(a){for(e=&quot;&quot;,r=parseInt(a.substr(0,2),16),n=2;a.length-n;n+=2)i=parseInt(a.substr(n,2),16)^r,e+=String.fromCharCode(i);e=document.createTextNode(e),c.parentNode.replaceChild(e,c)}}}catch(u){}}();/* ]]&gt; */&lt;/script&gt;\nFormat settings, CABAC                   : Yes\nFormat settings, ReFrames                : 2 frames\nCodec ID                                 : V_MPEG4/ISO/AVC\nDuration                                 : 1h 39mn\nBit rate mode                            : Variable\nBit rate                                 : 2 360 Kbps\nMaximum bit rate                         : 3 652 Kbps\nWidth                                    : 1 152 pixels\nHeight                                   : 620 pixels\nDisplay aspect ratio                     : 1.85:1\nFrame rate mode                          : Constant\nFrame rate                               : 23.976 fps\nColor space                              : YUV\nChroma subsampling                       : 4:2:0\nBit depth                                : 8 bits\nScan type                                : Progressive\nBits/(Pixel*Frame)                       : 0.138\nStream size                              : 1.64 GiB (82%)\nDefault                                  : Yes\nForced                                   : No\n\nAudio\nID                                       : 2\nFormat                                   : AC-3\nFormat/Info                              : Audio Coding 3\nMode extension                           : CM (complete main)\nFormat settings, Endianness              : Big\nCodec ID                                 : A_AC3\nDuration                                 : 1h 39mn\nBit rate mode                            : Constant\nBit rate                                 : 448 Kbps\nChannel(s)                               : 6 channels\nChannel positions                        : Front: L C R, Side: L R, LFE\nSampling rate                            : 48.0 KHz\nBit depth                                : 16 bits\nCompression mode                         : Lossy\nStream size                              : 318 MiB (16%)\nLanguage                                 : Spanish\nDefault                                  : Yes\nForced                                   : No\n\nMenu\n00:00:00.000                             : en:(01)00:00:00:000\n00:07:09.178                             : en:(02)00:07:09:178\n00:11:58.342                             : en:(03)00:11:58:342\n00:17:00.936                             : en:(04)00:17:00:936\n00:23:22.484                             : en:(05)00:23:22:484\n00:30:35.667                             : en:(06)00:30:35:667\n00:36:41.782                             : en:(07)00:36:41:782\n00:41:02.418                             : en:(08)00:41:02:418\n00:47:56.498                             : en:(09)00:47:56:498\n00:53:07.767                             : en:(10)00:53:07:767\n01:00:32.086                             : en:(11)01:00:32:086\n01:07:36.510                             : en:(12)01:07:36:510\n01:14:38.682                             : en:(13)01:14:38:682\n01:19:02.696                             : en:(14)01:19:02:696\n01:27:20.693                             : en:(15)01:27:20:693\n01:35:43.904                             : en:(16)01:35:43:904\n01:39:12.696                             : en:(17)01:39:12:696\n\n","torrent":{"xt":"urn:btih:3a89ed5cd259074405e4cbd60ef46525f2b70609","amp;dn":"Spanish.Affair.%5BOcho.Apellidos.Vascos%5D.2014.BRRip.x264.HORiZON-A","amp;tr":["udp%3A%2F%2Ftracker.openbittorrent.com%3A80","udp%3A%2F%2Fopen.demonii.com%3A1337","udp%3A%2F%2Ftracker.coppersurfer.tk%3A6969","udp%3A%2F%2Fexodus.desync.com%3A6969"],"infoHash":"3a89ed5cd259074405e4cbd60ef46525f2b70609","infoHashBuffer":{"type":"Buffer","data":[58,137,237,92,210,89,7,68,5,228,203,214,14,244,101,37,242,183,6,9]},"announce":[],"urlList":[]}}